<svg xmlns="http://www.w3.org/2000/svg" version="1.1" xmlns:xlink="http://www.w3.org/1999/xlink" xmlns:svgjs="http://svgjs.com/svgjs" width="1440" height="1600" preserveAspectRatio="none" viewBox="0 0 1440 1600"><g mask="url(&quot;#SvgjsMask1524&quot;)" fill="none"><rect width="1440" height="1600" x="0" y="0" fill="url(#SvgjsRadialGradient1525)"></rect><path d="M21.71 -71.31L86.66 -33.81L86.66 41.19L21.71 78.69L-43.24 41.19L-43.24 -33.81zM86.66 266.19L151.62 303.69L151.62 378.69L86.66 416.19L21.71 378.69L21.71 303.69zM21.71 378.69L86.66 416.19L86.66 491.19L21.71 528.69L-43.24 491.19L-43.24 416.19zM86.66 716.19L151.62 753.69L151.62 828.69L86.66 866.19L21.71 828.69L21.71 753.69zM21.71 828.69L86.66 866.19L86.66 941.19L21.71 978.69L-43.24 941.19L-43.24 866.19zM86.66 1166.19L151.62 1203.69L151.62 1278.69L86.66 1316.19L21.71 1278.69L21.71 1203.69zM86.66 1391.19L151.62 1428.69L151.62 1503.69L86.66 1541.19L21.71 1503.69L21.71 1428.69zM216.57 266.19L281.52 303.69L281.52 378.69L216.57 416.19L151.62 378.69L151.62 303.69zM151.62 603.69L216.57 641.19L216.57 716.19L151.62 753.69L86.66 716.19L86.66 641.19zM151.62 1053.69L216.57 1091.19L216.57 1166.19L151.62 1203.69L86.66 1166.19L86.66 1091.19zM216.57 1391.19L281.52 1428.69L281.52 1503.69L216.57 1541.19L151.62 1503.69L151.62 1428.69zM151.62 1503.69L216.57 1541.19L216.57 1616.19L151.62 1653.69L86.66 1616.19L86.66 1541.19zM281.52 378.69L346.48 416.19L346.48 491.19L281.52 528.69L216.57 491.19L216.57 416.19zM346.48 716.19L411.43 753.69L411.43 828.69L346.48 866.19L281.52 828.69L281.52 753.69zM346.48 1166.19L411.43 1203.69L411.43 1278.69L346.48 1316.19L281.52 1278.69L281.52 1203.69zM346.48 1391.19L411.43 1428.69L411.43 1503.69L346.48 1541.19L281.52 1503.69L281.52 1428.69zM281.52 1503.69L346.48 1541.19L346.48 1616.19L281.52 1653.69L216.57 1616.19L216.57 1541.19zM411.43 -71.31L476.39 -33.81L476.39 41.19L411.43 78.69L346.48 41.19L346.48 -33.81zM476.39 41.19L541.34 78.69L541.34 153.69L476.39 191.19L411.43 153.69L411.43 78.69zM411.43 153.69L476.39 191.19L476.39 266.19L411.43 303.69L346.48 266.19L346.48 191.19zM476.39 491.19L541.34 528.69L541.34 603.69L476.39 641.19L411.43 603.69L411.43 528.69zM411.43 603.69L476.39 641.19L476.39 716.19L411.43 753.69L346.48 716.19L346.48 641.19zM411.43 1278.69L476.39 1316.19L476.39 1391.19L411.43 1428.69L346.48 1391.19L346.48 1316.19zM541.34 -71.31L606.29 -33.81L606.29 41.19L541.34 78.69L476.39 41.19L476.39 -33.81zM606.29 41.19L671.25 78.69L671.25 153.69L606.29 191.19L541.34 153.69L541.34 78.69zM606.29 266.19L671.25 303.69L671.25 378.69L606.29 416.19L541.34 378.69L541.34 303.69zM606.29 491.19L671.25 528.69L671.25 603.69L606.29 641.19L541.34 603.69L541.34 528.69zM541.34 828.69L606.29 866.19L606.29 941.19L541.34 978.69L476.39 941.19L476.39 866.19zM541.34 1053.69L606.29 1091.19L606.29 1166.19L541.34 1203.69L476.39 1166.19L476.39 1091.19zM606.29 1166.19L671.25 1203.69L671.25 1278.69L606.29 1316.19L541.34 1278.69L541.34 1203.69zM606.29 1391.19L671.25 1428.69L671.25 1503.69L606.29 1541.19L541.34 1503.69L541.34 1428.69zM541.34 1503.69L606.29 1541.19L606.29 1616.19L541.34 1653.69L476.39 1616.19L476.39 1541.19zM671.25 -71.31L736.2 -33.81L736.2 41.19L671.25 78.69L606.29 41.19L606.29 -33.81zM736.2 41.19L801.16 78.69L801.16 153.69L736.2 191.19L671.25 153.69L671.25 78.69zM736.2 266.19L801.16 303.69L801.16 378.69L736.2 416.19L671.25 378.69L671.25 303.69zM671.25 378.69L736.2 416.19L736.2 491.19L671.25 528.69L606.29 491.19L606.29 416.19zM736.2 491.19L801.16 528.69L801.16 603.69L736.2 641.19L671.25 603.69L671.25 528.69zM671.25 603.69L736.2 641.19L736.2 716.19L671.25 753.69L606.29 716.19L606.29 641.19zM736.2 716.19L801.16 753.69L801.16 828.69L736.2 866.19L671.25 828.69L671.25 753.69zM736.2 941.19L801.16 978.69L801.16 1053.69L736.2 1091.19L671.25 1053.69L671.25 978.69zM801.15 -71.31L866.11 -33.81L866.11 41.19L801.15 78.69L736.2 41.19L736.2 -33.81zM801.15 153.69L866.11 191.19L866.11 266.19L801.15 303.69L736.2 266.19L736.2 191.19zM866.11 266.19L931.06 303.69L931.06 378.69L866.11 416.19L801.15 378.69L801.15 303.69zM801.15 378.69L866.11 416.19L866.11 491.19L801.15 528.69L736.2 491.19L736.2 416.19zM866.11 491.19L931.06 528.69L931.06 603.69L866.11 641.19L801.15 603.69L801.15 528.69zM866.11 716.19L931.06 753.69L931.06 828.69L866.11 866.19L801.15 828.69L801.15 753.69zM866.11 941.19L931.06 978.69L931.06 1053.69L866.11 1091.19L801.15 1053.69L801.15 978.69zM866.11 1166.19L931.06 1203.69L931.06 1278.69L866.11 1316.19L801.15 1278.69L801.15 1203.69zM801.15 1503.69L866.11 1541.19L866.11 1616.19L801.15 1653.69L736.2 1616.19L736.2 1541.19zM931.06 -71.31L996.02 -33.81L996.02 41.19L931.06 78.69L866.11 41.19L866.11 -33.81zM996.02 41.19L1060.97 78.69L1060.97 153.69L996.02 191.19L931.06 153.69L931.06 78.69zM931.06 153.69L996.02 191.19L996.02 266.19L931.06 303.69L866.11 266.19L866.11 191.19zM996.02 266.19L1060.97 303.69L1060.97 378.69L996.02 416.19L931.06 378.69L931.06 303.69zM931.06 378.69L996.02 416.19L996.02 491.19L931.06 528.69L866.11 491.19L866.11 416.19zM996.02 491.19L1060.97 528.69L1060.97 603.69L996.02 641.19L931.06 603.69L931.06 528.69zM996.02 941.19L1060.97 978.69L1060.97 1053.69L996.02 1091.19L931.06 1053.69L931.06 978.69zM931.06 1053.69L996.02 1091.19L996.02 1166.19L931.06 1203.69L866.11 1166.19L866.11 1091.19zM996.02 1391.19L1060.97 1428.69L1060.97 1503.69L996.02 1541.19L931.06 1503.69L931.06 1428.69zM1125.92 266.19L1190.88 303.69L1190.88 378.69L1125.92 416.19L1060.97 378.69L1060.97 303.69zM1125.92 716.19L1190.88 753.69L1190.88 828.69L1125.92 866.19L1060.97 828.69L1060.97 753.69zM1125.92 941.19L1190.88 978.69L1190.88 1053.69L1125.92 1091.19L1060.97 1053.69L1060.97 978.69zM1125.92 1166.19L1190.88 1203.69L1190.88 1278.69L1125.92 1316.19L1060.97 1278.69L1060.97 1203.69zM1060.97 1278.69L1125.92 1316.19L1125.92 1391.19L1060.97 1428.69L996.02 1391.19L996.02 1316.19zM1125.92 1391.19L1190.88 1428.69L1190.88 1503.69L1125.92 1541.19L1060.97 1503.69L1060.97 1428.69zM1190.88 -71.31L1255.83 -33.81L1255.83 41.19L1190.88 78.69L1125.92 41.19L1125.92 -33.81zM1255.83 41.19L1320.78 78.69L1320.78 153.69L1255.83 191.19L1190.88 153.69L1190.88 78.69zM1255.83 491.19L1320.78 528.69L1320.78 603.69L1255.83 641.19L1190.88 603.69L1190.88 528.69zM1190.88 603.69L1255.83 641.19L1255.83 716.19L1190.88 753.69L1125.92 716.19L1125.92 641.19zM1255.83 716.19L1320.78 753.69L1320.78 828.69L1255.83 866.19L1190.88 828.69L1190.88 753.69zM1190.88 828.69L1255.83 866.19L1255.83 941.19L1190.88 978.69L1125.92 941.19L1125.92 866.19zM1255.83 1166.19L1320.78 1203.69L1320.78 1278.69L1255.83 1316.19L1190.88 1278.69L1190.88 1203.69zM1190.88 1503.69L1255.83 1541.19L1255.83 1616.19L1190.88 1653.69L1125.92 1616.19L1125.92 1541.19zM1320.79 -71.31L1385.74 -33.81L1385.74 41.19L1320.79 78.69L1255.83 41.19L1255.83 -33.81zM1385.74 41.19L1450.69 78.69L1450.69 153.69L1385.74 191.19L1320.79 153.69L1320.79 78.69zM1385.74 266.19L1450.69 303.69L1450.69 378.69L1385.74 416.19L1320.79 378.69L1320.79 303.69zM1320.79 378.69L1385.74 416.19L1385.74 491.19L1320.79 528.69L1255.83 491.19L1255.83 416.19zM1385.74 716.19L1450.69 753.69L1450.69 828.69L1385.74 866.19L1320.79 828.69L1320.79 753.69zM1385.74 941.19L1450.69 978.69L1450.69 1053.69L1385.74 1091.19L1320.79 1053.69L1320.79 978.69zM1320.79 1053.69L1385.74 1091.19L1385.74 1166.19L1320.79 1203.69L1255.83 1166.19L1255.83 1091.19zM1385.74 1166.19L1450.69 1203.69L1450.69 1278.69L1385.74 1316.19L1320.79 1278.69L1320.79 1203.69zM1515.65 41.19L1580.6 78.69L1580.6 153.69L1515.65 191.19L1450.69 153.69L1450.69 78.69zM1450.69 153.69L1515.65 191.19L1515.65 266.19L1450.69 303.69L1385.74 266.19L1385.74 191.19zM1515.65 266.19L1580.6 303.69L1580.6 378.69L1515.65 416.19L1450.69 378.69L1450.69 303.69zM1515.65 491.19L1580.6 528.69L1580.6 603.69L1515.65 641.19L1450.69 603.69L1450.69 528.69zM1450.69 828.69L1515.65 866.19L1515.65 941.19L1450.69 978.69L1385.74 941.19L1385.74 866.19zM1450.69 1053.69L1515.65 1091.19L1515.65 1166.19L1450.69 1203.69L1385.74 1166.19L1385.74 1091.19zM1515.65 1166.19L1580.6 1203.69L1580.6 1278.69L1515.65 1316.19L1450.69 1278.69L1450.69 1203.69zM1450.69 1278.69L1515.65 1316.19L1515.65 1391.19L1450.69 1428.69L1385.74 1391.19L1385.74 1316.19z" stroke="#03305d" stroke-width="2"></path><path d="M14.21 -71.31 a7.5 7.5 0 1 0 15 0 a7.5 7.5 0 1 0 -15 0zM79.16 -33.81 a7.5 7.5 0 1 0 15 0 a7.5 7.5 0 1 0 -15 0zM79.16 41.19 a7.5 7.5 0 1 0 15 0 a7.5 7.5 0 1 0 -15 0zM14.21 78.69 a7.5 7.5 0 1 0 15 0 a7.5 7.5 0 1 0 -15 0zM-50.74 41.19 a7.5 7.5 0 1 0 15 0 a7.5 7.5 0 1 0 -15 0zM-50.74 -33.81 a7.5 7.5 0 1 0 15 0 a7.5 7.5 0 1 0 -15 0zM79.16 266.19 a7.5 7.5 0 1 0 15 0 a7.5 7.5 0 1 0 -15 0zM144.12 303.69 a7.5 7.5 0 1 0 15 0 a7.5 7.5 0 1 0 -15 0zM144.12 378.69 a7.5 7.5 0 1 0 15 0 a7.5 7.5 0 1 0 -15 0zM79.16 416.19 a7.5 7.5 0 1 0 15 0 a7.5 7.5 0 1 0 -15 0zM14.21 378.69 a7.5 7.5 0 1 0 15 0 a7.5 7.5 0 1 0 -15 0zM14.21 303.69 a7.5 7.5 0 1 0 15 0 a7.5 7.5 0 1 0 -15 0zM79.16 491.19 a7.5 7.5 0 1 0 15 0 a7.5 7.5 0 1 0 -15 0zM14.21 528.69 a7.5 7.5 0 1 0 15 0 a7.5 7.5 0 1 0 -15 0zM-50.74 491.19 a7.5 7.5 0 1 0 15 0 a7.5 7.5 0 1 0 -15 0zM-50.74 416.19 a7.5 7.5 0 1 0 15 0 a7.5 7.5 0 1 0 -15 0zM79.16 716.19 a7.5 7.5 0 1 0 15 0 a7.5 7.5 0 1 0 -15 0zM144.12 753.69 a7.5 7.5 0 1 0 15 0 a7.5 7.5 0 1 0 -15 0zM144.12 828.69 a7.5 7.5 0 1 0 15 0 a7.5 7.5 0 1 0 -15 0zM79.16 866.19 a7.5 7.5 0 1 0 15 0 a7.5 7.5 0 1 0 -15 0zM14.21 828.69 a7.5 7.5 0 1 0 15 0 a7.5 7.5 0 1 0 -15 0zM14.21 753.69 a7.5 7.5 0 1 0 15 0 a7.5 7.5 0 1 0 -15 0zM79.16 941.19 a7.5 7.5 0 1 0 15 0 a7.5 7.5 0 1 0 -15 0zM14.21 978.69 a7.5 7.5 0 1 0 15 0 a7.5 7.5 0 1 0 -15 0zM-50.74 941.19 a7.5 7.5 0 1 0 15 0 a7.5 7.5 0 1 0 -15 0zM-50.74 866.19 a7.5 7.5 0 1 0 15 0 a7.5 7.5 0 1 0 -15 0zM79.16 1166.19 a7.5 7.5 0 1 0 15 0 a7.5 7.5 0 1 0 -15 0zM144.12 1203.69 a7.5 7.5 0 1 0 15 0 a7.5 7.5 0 1 0 -15 0zM144.12 1278.69 a7.5 7.5 0 1 0 15 0 a7.5 7.5 0 1 0 -15 0zM79.16 1316.19 a7.5 7.5 0 1 0 15 0 a7.5 7.5 0 1 0 -15 0zM14.21 1278.69 a7.5 7.5 0 1 0 15 0 a7.5 7.5 0 1 0 -15 0zM14.21 1203.69 a7.5 7.5 0 1 0 15 0 a7.5 7.5 0 1 0 -15 0zM79.16 1391.19 a7.5 7.5 0 1 0 15 0 a7.5 7.5 0 1 0 -15 0zM144.12 1428.69 a7.5 7.5 0 1 0 15 0 a7.5 7.5 0 1 0 -15 0zM144.12 1503.69 a7.5 7.5 0 1 0 15 0 a7.5 7.5 0 1 0 -15 0zM79.16 1541.19 a7.5 7.5 0 1 0 15 0 a7.5 7.5 0 1 0 -15 0zM14.21 1503.69 a7.5 7.5 0 1 0 15 0 a7.5 7.5 0 1 0 -15 0zM14.21 1428.69 a7.5 7.5 0 1 0 15 0 a7.5 7.5 0 1 0 -15 0zM209.07 266.19 a7.5 7.5 0 1 0 15 0 a7.5 7.5 0 1 0 -15 0zM274.02 303.69 a7.5 7.5 0 1 0 15 0 a7.5 7.5 0 1 0 -15 0zM274.02 378.69 a7.5 7.5 0 1 0 15 0 a7.5 7.5 0 1 0 -15 0zM209.07 416.19 a7.5 7.5 0 1 0 15 0 a7.5 7.5 0 1 0 -15 0zM144.12 603.69 a7.5 7.5 0 1 0 15 0 a7.5 7.5 0 1 0 -15 0zM209.07 641.19 a7.5 7.5 0 1 0 15 0 a7.5 7.5 0 1 0 -15 0zM209.07 716.19 a7.5 7.5 0 1 0 15 0 a7.5 7.5 0 1 0 -15 0zM79.16 641.19 a7.5 7.5 0 1 0 15 0 a7.5 7.5 0 1 0 -15 0zM144.12 1053.69 a7.5 7.5 0 1 0 15 0 a7.5 7.5 0 1 0 -15 0zM209.07 1091.19 a7.5 7.5 0 1 0 15 0 a7.5 7.5 0 1 0 -15 0zM209.07 1166.19 a7.5 7.5 0 1 0 15 0 a7.5 7.5 0 1 0 -15 0zM79.16 1091.19 a7.5 7.5 0 1 0 15 0 a7.5 7.5 0 1 0 -15 0zM209.07 1391.19 a7.5 7.5 0 1 0 15 0 a7.5 7.5 0 1 0 -15 0zM274.02 1428.69 a7.5 7.5 0 1 0 15 0 a7.5 7.5 0 1 0 -15 0zM274.02 1503.69 a7.5 7.5 0 1 0 15 0 a7.5 7.5 0 1 0 -15 0zM209.07 1541.19 a7.5 7.5 0 1 0 15 0 a7.5 7.5 0 1 0 -15 0zM209.07 1616.19 a7.5 7.5 0 1 0 15 0 a7.5 7.5 0 1 0 -15 0zM144.12 1653.69 a7.5 7.5 0 1 0 15 0 a7.5 7.5 0 1 0 -15 0zM79.16 1616.19 a7.5 7.5 0 1 0 15 0 a7.5 7.5 0 1 0 -15 0zM338.98 416.19 a7.5 7.5 0 1 0 15 0 a7.5 7.5 0 1 0 -15 0zM338.98 491.19 a7.5 7.5 0 1 0 15 0 a7.5 7.5 0 1 0 -15 0zM274.02 528.69 a7.5 7.5 0 1 0 15 0 a7.5 7.5 0 1 0 -15 0zM209.07 491.19 a7.5 7.5 0 1 0 15 0 a7.5 7.5 0 1 0 -15 0zM338.98 716.19 a7.5 7.5 0 1 0 15 0 a7.5 7.5 0 1 0 -15 0zM403.93 753.69 a7.5 7.5 0 1 0 15 0 a7.5 7.5 0 1 0 -15 0zM403.93 828.69 a7.5 7.5 0 1 0 15 0 a7.5 7.5 0 1 0 -15 0zM338.98 866.19 a7.5 7.5 0 1 0 15 0 a7.5 7.5 0 1 0 -15 0zM274.02 828.69 a7.5 7.5 0 1 0 15 0 a7.5 7.5 0 1 0 -15 0zM274.02 753.69 a7.5 7.5 0 1 0 15 0 a7.5 7.5 0 1 0 -15 0zM338.98 1166.19 a7.5 7.5 0 1 0 15 0 a7.5 7.5 0 1 0 -15 0zM403.93 1203.69 a7.5 7.5 0 1 0 15 0 a7.5 7.5 0 1 0 -15 0zM403.93 1278.69 a7.5 7.5 0 1 0 15 0 a7.5 7.5 0 1 0 -15 0zM338.98 1316.19 a7.5 7.5 0 1 0 15 0 a7.5 7.5 0 1 0 -15 0zM274.02 1278.69 a7.5 7.5 0 1 0 15 0 a7.5 7.5 0 1 0 -15 0zM274.02 1203.69 a7.5 7.5 0 1 0 15 0 a7.5 7.5 0 1 0 -15 0zM338.98 1391.19 a7.5 7.5 0 1 0 15 0 a7.5 7.5 0 1 0 -15 0zM403.93 1428.69 a7.5 7.5 0 1 0 15 0 a7.5 7.5 0 1 0 -15 0zM403.93 1503.69 a7.5 7.5 0 1 0 15 0 a7.5 7.5 0 1 0 -15 0zM338.98 1541.19 a7.5 7.5 0 1 0 15 0 a7.5 7.5 0 1 0 -15 0zM338.98 1616.19 a7.5 7.5 0 1 0 15 0 a7.5 7.5 0 1 0 -15 0zM274.02 1653.69 a7.5 7.5 0 1 0 15 0 a7.5 7.5 0 1 0 -15 0zM403.93 -71.31 a7.5 7.5 0 1 0 15 0 a7.5 7.5 0 1 0 -15 0zM468.89 -33.81 a7.5 7.5 0 1 0 15 0 a7.5 7.5 0 1 0 -15 0zM468.89 41.19 a7.5 7.5 0 1 0 15 0 a7.5 7.5 0 1 0 -15 0zM403.93 78.69 a7.5 7.5 0 1 0 15 0 a7.5 7.5 0 1 0 -15 0zM338.98 41.19 a7.5 7.5 0 1 0 15 0 a7.5 7.5 0 1 0 -15 0zM338.98 -33.81 a7.5 7.5 0 1 0 15 0 a7.5 7.5 0 1 0 -15 0zM533.84 78.69 a7.5 7.5 0 1 0 15 0 a7.5 7.5 0 1 0 -15 0zM533.84 153.69 a7.5 7.5 0 1 0 15 0 a7.5 7.5 0 1 0 -15 0zM468.89 191.19 a7.5 7.5 0 1 0 15 0 a7.5 7.5 0 1 0 -15 0zM403.93 153.69 a7.5 7.5 0 1 0 15 0 a7.5 7.5 0 1 0 -15 0zM468.89 266.19 a7.5 7.5 0 1 0 15 0 a7.5 7.5 0 1 0 -15 0zM403.93 303.69 a7.5 7.5 0 1 0 15 0 a7.5 7.5 0 1 0 -15 0zM338.98 266.19 a7.5 7.5 0 1 0 15 0 a7.5 7.5 0 1 0 -15 0zM338.98 191.19 a7.5 7.5 0 1 0 15 0 a7.5 7.5 0 1 0 -15 0zM468.89 491.19 a7.5 7.5 0 1 0 15 0 a7.5 7.5 0 1 0 -15 0zM533.84 528.69 a7.5 7.5 0 1 0 15 0 a7.5 7.5 0 1 0 -15 0zM533.84 603.69 a7.5 7.5 0 1 0 15 0 a7.5 7.5 0 1 0 -15 0zM468.89 641.19 a7.5 7.5 0 1 0 15 0 a7.5 7.5 0 1 0 -15 0zM403.93 603.69 a7.5 7.5 0 1 0 15 0 a7.5 7.5 0 1 0 -15 0zM403.93 528.69 a7.5 7.5 0 1 0 15 0 a7.5 7.5 0 1 0 -15 0zM468.89 716.19 a7.5 7.5 0 1 0 15 0 a7.5 7.5 0 1 0 -15 0zM338.98 641.19 a7.5 7.5 0 1 0 15 0 a7.5 7.5 0 1 0 -15 0zM468.89 1316.19 a7.5 7.5 0 1 0 15 0 a7.5 7.5 0 1 0 -15 0zM468.89 1391.19 a7.5 7.5 0 1 0 15 0 a7.5 7.5 0 1 0 -15 0zM533.84 -71.31 a7.5 7.5 0 1 0 15 0 a7.5 7.5 0 1 0 -15 0zM598.79 -33.81 a7.5 7.5 0 1 0 15 0 a7.5 7.5 0 1 0 -15 0zM598.79 41.19 a7.5 7.5 0 1 0 15 0 a7.5 7.5 0 1 0 -15 0zM663.75 78.69 a7.5 7.5 0 1 0 15 0 a7.5 7.5 0 1 0 -15 0zM663.75 153.69 a7.5 7.5 0 1 0 15 0 a7.5 7.5 0 1 0 -15 0zM598.79 191.19 a7.5 7.5 0 1 0 15 0 a7.5 7.5 0 1 0 -15 0zM598.79 266.19 a7.5 7.5 0 1 0 15 0 a7.5 7.5 0 1 0 -15 0zM663.75 303.69 a7.5 7.5 0 1 0 15 0 a7.5 7.5 0 1 0 -15 0zM663.75 378.69 a7.5 7.5 0 1 0 15 0 a7.5 7.5 0 1 0 -15 0zM598.79 416.19 a7.5 7.5 0 1 0 15 0 a7.5 7.5 0 1 0 -15 0zM533.84 378.69 a7.5 7.5 0 1 0 15 0 a7.5 7.5 0 1 0 -15 0zM533.84 303.69 a7.5 7.5 0 1 0 15 0 a7.5 7.5 0 1 0 -15 0zM598.79 491.19 a7.5 7.5 0 1 0 15 0 a7.5 7.5 0 1 0 -15 0zM663.75 528.69 a7.5 7.5 0 1 0 15 0 a7.5 7.5 0 1 0 -15 0zM663.75 603.69 a7.5 7.5 0 1 0 15 0 a7.5 7.5 0 1 0 -15 0zM598.79 641.19 a7.5 7.5 0 1 0 15 0 a7.5 7.5 0 1 0 -15 0zM533.84 828.69 a7.5 7.5 0 1 0 15 0 a7.5 7.5 0 1 0 -15 0zM598.79 866.19 a7.5 7.5 0 1 0 15 0 a7.5 7.5 0 1 0 -15 0zM598.79 941.19 a7.5 7.5 0 1 0 15 0 a7.5 7.5 0 1 0 -15 0zM533.84 978.69 a7.5 7.5 0 1 0 15 0 a7.5 7.5 0 1 0 -15 0zM468.89 941.19 a7.5 7.5 0 1 0 15 0 a7.5 7.5 0 1 0 -15 0zM468.89 866.19 a7.5 7.5 0 1 0 15 0 a7.5 7.5 0 1 0 -15 0zM533.84 1053.69 a7.5 7.5 0 1 0 15 0 a7.5 7.5 0 1 0 -15 0zM598.79 1091.19 a7.5 7.5 0 1 0 15 0 a7.5 7.5 0 1 0 -15 0zM598.79 1166.19 a7.5 7.5 0 1 0 15 0 a7.5 7.5 0 1 0 -15 0zM533.84 1203.69 a7.5 7.5 0 1 0 15 0 a7.5 7.5 0 1 0 -15 0zM468.89 1166.19 a7.5 7.5 0 1 0 15 0 a7.5 7.5 0 1 0 -15 0zM468.89 1091.19 a7.5 7.5 0 1 0 15 0 a7.5 7.5 0 1 0 -15 0zM663.75 1203.69 a7.5 7.5 0 1 0 15 0 a7.5 7.5 0 1 0 -15 0zM663.75 1278.69 a7.5 7.5 0 1 0 15 0 a7.5 7.5 0 1 0 -15 0zM598.79 1316.19 a7.5 7.5 0 1 0 15 0 a7.5 7.5 0 1 0 -15 0zM533.84 1278.69 a7.5 7.5 0 1 0 15 0 a7.5 7.5 0 1 0 -15 0zM598.79 1391.19 a7.5 7.5 0 1 0 15 0 a7.5 7.5 0 1 0 -15 0zM663.75 1428.69 a7.5 7.5 0 1 0 15 0 a7.5 7.5 0 1 0 -15 0zM663.75 1503.69 a7.5 7.5 0 1 0 15 0 a7.5 7.5 0 1 0 -15 0zM598.79 1541.19 a7.5 7.5 0 1 0 15 0 a7.5 7.5 0 1 0 -15 0zM533.84 1503.69 a7.5 7.5 0 1 0 15 0 a7.5 7.5 0 1 0 -15 0zM533.84 1428.69 a7.5 7.5 0 1 0 15 0 a7.5 7.5 0 1 0 -15 0zM598.79 1616.19 a7.5 7.5 0 1 0 15 0 a7.5 7.5 0 1 0 -15 0zM533.84 1653.69 a7.5 7.5 0 1 0 15 0 a7.5 7.5 0 1 0 -15 0zM468.89 1616.19 a7.5 7.5 0 1 0 15 0 a7.5 7.5 0 1 0 -15 0zM468.89 1541.19 a7.5 7.5 0 1 0 15 0 a7.5 7.5 0 1 0 -15 0zM663.75 -71.31 a7.5 7.5 0 1 0 15 0 a7.5 7.5 0 1 0 -15 0zM728.7 -33.81 a7.5 7.5 0 1 0 15 0 a7.5 7.5 0 1 0 -15 0zM728.7 41.19 a7.5 7.5 0 1 0 15 0 a7.5 7.5 0 1 0 -15 0zM793.66 78.69 a7.5 7.5 0 1 0 15 0 a7.5 7.5 0 1 0 -15 0zM793.66 153.69 a7.5 7.5 0 1 0 15 0 a7.5 7.5 0 1 0 -15 0zM728.7 191.19 a7.5 7.5 0 1 0 15 0 a7.5 7.5 0 1 0 -15 0zM728.7 266.19 a7.5 7.5 0 1 0 15 0 a7.5 7.5 0 1 0 -15 0zM793.66 303.69 a7.5 7.5 0 1 0 15 0 a7.5 7.5 0 1 0 -15 0zM793.66 378.69 a7.5 7.5 0 1 0 15 0 a7.5 7.5 0 1 0 -15 0zM728.7 416.19 a7.5 7.5 0 1 0 15 0 a7.5 7.5 0 1 0 -15 0zM728.7 491.19 a7.5 7.5 0 1 0 15 0 a7.5 7.5 0 1 0 -15 0zM793.66 528.69 a7.5 7.5 0 1 0 15 0 a7.5 7.5 0 1 0 -15 0zM793.66 603.69 a7.5 7.5 0 1 0 15 0 a7.5 7.5 0 1 0 -15 0zM728.7 641.19 a7.5 7.5 0 1 0 15 0 a7.5 7.5 0 1 0 -15 0zM728.7 716.19 a7.5 7.5 0 1 0 15 0 a7.5 7.5 0 1 0 -15 0zM663.75 753.69 a7.5 7.5 0 1 0 15 0 a7.5 7.5 0 1 0 -15 0zM598.79 716.19 a7.5 7.5 0 1 0 15 0 a7.5 7.5 0 1 0 -15 0zM793.66 753.69 a7.5 7.5 0 1 0 15 0 a7.5 7.5 0 1 0 -15 0zM793.66 828.69 a7.5 7.5 0 1 0 15 0 a7.5 7.5 0 1 0 -15 0zM728.7 866.19 a7.5 7.5 0 1 0 15 0 a7.5 7.5 0 1 0 -15 0zM663.75 828.69 a7.5 7.5 0 1 0 15 0 a7.5 7.5 0 1 0 -15 0zM728.7 941.19 a7.5 7.5 0 1 0 15 0 a7.5 7.5 0 1 0 -15 0zM793.66 978.69 a7.5 7.5 0 1 0 15 0 a7.5 7.5 0 1 0 -15 0zM793.66 1053.69 a7.5 7.5 0 1 0 15 0 a7.5 7.5 0 1 0 -15 0zM728.7 1091.19 a7.5 7.5 0 1 0 15 0 a7.5 7.5 0 1 0 -15 0zM663.75 1053.69 a7.5 7.5 0 1 0 15 0 a7.5 7.5 0 1 0 -15 0zM663.75 978.69 a7.5 7.5 0 1 0 15 0 a7.5 7.5 0 1 0 -15 0zM793.65 -71.31 a7.5 7.5 0 1 0 15 0 a7.5 7.5 0 1 0 -15 0zM858.61 -33.81 a7.5 7.5 0 1 0 15 0 a7.5 7.5 0 1 0 -15 0zM858.61 41.19 a7.5 7.5 0 1 0 15 0 a7.5 7.5 0 1 0 -15 0zM793.65 78.69 a7.5 7.5 0 1 0 15 0 a7.5 7.5 0 1 0 -15 0zM793.65 153.69 a7.5 7.5 0 1 0 15 0 a7.5 7.5 0 1 0 -15 0zM858.61 191.19 a7.5 7.5 0 1 0 15 0 a7.5 7.5 0 1 0 -15 0zM858.61 266.19 a7.5 7.5 0 1 0 15 0 a7.5 7.5 0 1 0 -15 0zM793.65 303.69 a7.5 7.5 0 1 0 15 0 a7.5 7.5 0 1 0 -15 0zM923.56 303.69 a7.5 7.5 0 1 0 15 0 a7.5 7.5 0 1 0 -15 0zM923.56 378.69 a7.5 7.5 0 1 0 15 0 a7.5 7.5 0 1 0 -15 0zM858.61 416.19 a7.5 7.5 0 1 0 15 0 a7.5 7.5 0 1 0 -15 0zM793.65 378.69 a7.5 7.5 0 1 0 15 0 a7.5 7.5 0 1 0 -15 0zM858.61 491.19 a7.5 7.5 0 1 0 15 0 a7.5 7.5 0 1 0 -15 0zM793.65 528.69 a7.5 7.5 0 1 0 15 0 a7.5 7.5 0 1 0 -15 0zM923.56 528.69 a7.5 7.5 0 1 0 15 0 a7.5 7.5 0 1 0 -15 0zM923.56 603.69 a7.5 7.5 0 1 0 15 0 a7.5 7.5 0 1 0 -15 0zM858.61 641.19 a7.5 7.5 0 1 0 15 0 a7.5 7.5 0 1 0 -15 0zM793.65 603.69 a7.5 7.5 0 1 0 15 0 a7.5 7.5 0 1 0 -15 0zM858.61 716.19 a7.5 7.5 0 1 0 15 0 a7.5 7.5 0 1 0 -15 0zM923.56 753.69 a7.5 7.5 0 1 0 15 0 a7.5 7.5 0 1 0 -15 0zM923.56 828.69 a7.5 7.5 0 1 0 15 0 a7.5 7.5 0 1 0 -15 0zM858.61 866.19 a7.5 7.5 0 1 0 15 0 a7.5 7.5 0 1 0 -15 0zM793.65 828.69 a7.5 7.5 0 1 0 15 0 a7.5 7.5 0 1 0 -15 0zM793.65 753.69 a7.5 7.5 0 1 0 15 0 a7.5 7.5 0 1 0 -15 0zM858.61 941.19 a7.5 7.5 0 1 0 15 0 a7.5 7.5 0 1 0 -15 0zM923.56 978.69 a7.5 7.5 0 1 0 15 0 a7.5 7.5 0 1 0 -15 0zM923.56 1053.69 a7.5 7.5 0 1 0 15 0 a7.5 7.5 0 1 0 -15 0zM858.61 1091.19 a7.5 7.5 0 1 0 15 0 a7.5 7.5 0 1 0 -15 0zM793.65 1053.69 a7.5 7.5 0 1 0 15 0 a7.5 7.5 0 1 0 -15 0zM793.65 978.69 a7.5 7.5 0 1 0 15 0 a7.5 7.5 0 1 0 -15 0zM858.61 1166.19 a7.5 7.5 0 1 0 15 0 a7.5 7.5 0 1 0 -15 0zM923.56 1203.69 a7.5 7.5 0 1 0 15 0 a7.5 7.5 0 1 0 -15 0zM923.56 1278.69 a7.5 7.5 0 1 0 15 0 a7.5 7.5 0 1 0 -15 0zM858.61 1316.19 a7.5 7.5 0 1 0 15 0 a7.5 7.5 0 1 0 -15 0zM793.65 1278.69 a7.5 7.5 0 1 0 15 0 a7.5 7.5 0 1 0 -15 0zM793.65 1203.69 a7.5 7.5 0 1 0 15 0 a7.5 7.5 0 1 0 -15 0zM793.65 1503.69 a7.5 7.5 0 1 0 15 0 a7.5 7.5 0 1 0 -15 0zM858.61 1541.19 a7.5 7.5 0 1 0 15 0 a7.5 7.5 0 1 0 -15 0zM858.61 1616.19 a7.5 7.5 0 1 0 15 0 a7.5 7.5 0 1 0 -15 0zM793.65 1653.69 a7.5 7.5 0 1 0 15 0 a7.5 7.5 0 1 0 -15 0zM728.7 1616.19 a7.5 7.5 0 1 0 15 0 a7.5 7.5 0 1 0 -15 0zM728.7 1541.19 a7.5 7.5 0 1 0 15 0 a7.5 7.5 0 1 0 -15 0zM923.56 -71.31 a7.5 7.5 0 1 0 15 0 a7.5 7.5 0 1 0 -15 0zM988.52 -33.81 a7.5 7.5 0 1 0 15 0 a7.5 7.5 0 1 0 -15 0zM988.52 41.19 a7.5 7.5 0 1 0 15 0 a7.5 7.5 0 1 0 -15 0zM923.56 78.69 a7.5 7.5 0 1 0 15 0 a7.5 7.5 0 1 0 -15 0zM1053.47 78.69 a7.5 7.5 0 1 0 15 0 a7.5 7.5 0 1 0 -15 0zM1053.47 153.69 a7.5 7.5 0 1 0 15 0 a7.5 7.5 0 1 0 -15 0zM988.52 191.19 a7.5 7.5 0 1 0 15 0 a7.5 7.5 0 1 0 -15 0zM923.56 153.69 a7.5 7.5 0 1 0 15 0 a7.5 7.5 0 1 0 -15 0zM988.52 266.19 a7.5 7.5 0 1 0 15 0 a7.5 7.5 0 1 0 -15 0zM1053.47 303.69 a7.5 7.5 0 1 0 15 0 a7.5 7.5 0 1 0 -15 0zM1053.47 378.69 a7.5 7.5 0 1 0 15 0 a7.5 7.5 0 1 0 -15 0zM988.52 416.19 a7.5 7.5 0 1 0 15 0 a7.5 7.5 0 1 0 -15 0zM988.52 491.19 a7.5 7.5 0 1 0 15 0 a7.5 7.5 0 1 0 -15 0zM1053.47 528.69 a7.5 7.5 0 1 0 15 0 a7.5 7.5 0 1 0 -15 0zM1053.47 603.69 a7.5 7.5 0 1 0 15 0 a7.5 7.5 0 1 0 -15 0zM988.52 641.19 a7.5 7.5 0 1 0 15 0 a7.5 7.5 0 1 0 -15 0zM988.52 941.19 a7.5 7.5 0 1 0 15 0 a7.5 7.5 0 1 0 -15 0zM1053.47 978.69 a7.5 7.5 0 1 0 15 0 a7.5 7.5 0 1 0 -15 0zM1053.47 1053.69 a7.5 7.5 0 1 0 15 0 a7.5 7.5 0 1 0 -15 0zM988.52 1091.19 a7.5 7.5 0 1 0 15 0 a7.5 7.5 0 1 0 -15 0zM988.52 1166.19 a7.5 7.5 0 1 0 15 0 a7.5 7.5 0 1 0 -15 0zM988.52 1391.19 a7.5 7.5 0 1 0 15 0 a7.5 7.5 0 1 0 -15 0zM1053.47 1428.69 a7.5 7.5 0 1 0 15 0 a7.5 7.5 0 1 0 -15 0zM1053.47 1503.69 a7.5 7.5 0 1 0 15 0 a7.5 7.5 0 1 0 -15 0zM988.52 1541.19 a7.5 7.5 0 1 0 15 0 a7.5 7.5 0 1 0 -15 0zM923.56 1503.69 a7.5 7.5 0 1 0 15 0 a7.5 7.5 0 1 0 -15 0zM923.56 1428.69 a7.5 7.5 0 1 0 15 0 a7.5 7.5 0 1 0 -15 0zM1118.42 266.19 a7.5 7.5 0 1 0 15 0 a7.5 7.5 0 1 0 -15 0zM1183.38 303.69 a7.5 7.5 0 1 0 15 0 a7.5 7.5 0 1 0 -15 0zM1183.38 378.69 a7.5 7.5 0 1 0 15 0 a7.5 7.5 0 1 0 -15 0zM1118.42 416.19 a7.5 7.5 0 1 0 15 0 a7.5 7.5 0 1 0 -15 0zM1118.42 716.19 a7.5 7.5 0 1 0 15 0 a7.5 7.5 0 1 0 -15 0zM1183.38 753.69 a7.5 7.5 0 1 0 15 0 a7.5 7.5 0 1 0 -15 0zM1183.38 828.69 a7.5 7.5 0 1 0 15 0 a7.5 7.5 0 1 0 -15 0zM1118.42 866.19 a7.5 7.5 0 1 0 15 0 a7.5 7.5 0 1 0 -15 0zM1053.47 828.69 a7.5 7.5 0 1 0 15 0 a7.5 7.5 0 1 0 -15 0zM1053.47 753.69 a7.5 7.5 0 1 0 15 0 a7.5 7.5 0 1 0 -15 0zM1118.42 941.19 a7.5 7.5 0 1 0 15 0 a7.5 7.5 0 1 0 -15 0zM1183.38 978.69 a7.5 7.5 0 1 0 15 0 a7.5 7.5 0 1 0 -15 0zM1183.38 1053.69 a7.5 7.5 0 1 0 15 0 a7.5 7.5 0 1 0 -15 0zM1118.42 1091.19 a7.5 7.5 0 1 0 15 0 a7.5 7.5 0 1 0 -15 0zM1118.42 1166.19 a7.5 7.5 0 1 0 15 0 a7.5 7.5 0 1 0 -15 0zM1183.38 1203.69 a7.5 7.5 0 1 0 15 0 a7.5 7.5 0 1 0 -15 0zM1183.38 1278.69 a7.5 7.5 0 1 0 15 0 a7.5 7.5 0 1 0 -15 0zM1118.42 1316.19 a7.5 7.5 0 1 0 15 0 a7.5 7.5 0 1 0 -15 0zM1053.47 1278.69 a7.5 7.5 0 1 0 15 0 a7.5 7.5 0 1 0 -15 0zM1053.47 1203.69 a7.5 7.5 0 1 0 15 0 a7.5 7.5 0 1 0 -15 0zM1118.42 1391.19 a7.5 7.5 0 1 0 15 0 a7.5 7.5 0 1 0 -15 0zM988.52 1316.19 a7.5 7.5 0 1 0 15 0 a7.5 7.5 0 1 0 -15 0zM1183.38 1428.69 a7.5 7.5 0 1 0 15 0 a7.5 7.5 0 1 0 -15 0zM1183.38 1503.69 a7.5 7.5 0 1 0 15 0 a7.5 7.5 0 1 0 -15 0zM1118.42 1541.19 a7.5 7.5 0 1 0 15 0 a7.5 7.5 0 1 0 -15 0zM1183.38 -71.31 a7.5 7.5 0 1 0 15 0 a7.5 7.5 0 1 0 -15 0zM1248.33 -33.81 a7.5 7.5 0 1 0 15 0 a7.5 7.5 0 1 0 -15 0zM1248.33 41.19 a7.5 7.5 0 1 0 15 0 a7.5 7.5 0 1 0 -15 0zM1183.38 78.69 a7.5 7.5 0 1 0 15 0 a7.5 7.5 0 1 0 -15 0zM1118.42 41.19 a7.5 7.5 0 1 0 15 0 a7.5 7.5 0 1 0 -15 0zM1118.42 -33.81 a7.5 7.5 0 1 0 15 0 a7.5 7.5 0 1 0 -15 0zM1313.28 78.69 a7.5 7.5 0 1 0 15 0 a7.5 7.5 0 1 0 -15 0zM1313.28 153.69 a7.5 7.5 0 1 0 15 0 a7.5 7.5 0 1 0 -15 0zM1248.33 191.19 a7.5 7.5 0 1 0 15 0 a7.5 7.5 0 1 0 -15 0zM1183.38 153.69 a7.5 7.5 0 1 0 15 0 a7.5 7.5 0 1 0 -15 0zM1248.33 491.19 a7.5 7.5 0 1 0 15 0 a7.5 7.5 0 1 0 -15 0zM1313.28 528.69 a7.5 7.5 0 1 0 15 0 a7.5 7.5 0 1 0 -15 0zM1313.28 603.69 a7.5 7.5 0 1 0 15 0 a7.5 7.5 0 1 0 -15 0zM1248.33 641.19 a7.5 7.5 0 1 0 15 0 a7.5 7.5 0 1 0 -15 0zM1183.38 603.69 a7.5 7.5 0 1 0 15 0 a7.5 7.5 0 1 0 -15 0zM1183.38 528.69 a7.5 7.5 0 1 0 15 0 a7.5 7.5 0 1 0 -15 0zM1248.33 716.19 a7.5 7.5 0 1 0 15 0 a7.5 7.5 0 1 0 -15 0zM1118.42 641.19 a7.5 7.5 0 1 0 15 0 a7.5 7.5 0 1 0 -15 0zM1313.28 753.69 a7.5 7.5 0 1 0 15 0 a7.5 7.5 0 1 0 -15 0zM1313.28 828.69 a7.5 7.5 0 1 0 15 0 a7.5 7.5 0 1 0 -15 0zM1248.33 866.19 a7.5 7.5 0 1 0 15 0 a7.5 7.5 0 1 0 -15 0zM1248.33 941.19 a7.5 7.5 0 1 0 15 0 a7.5 7.5 0 1 0 -15 0zM1248.33 1166.19 a7.5 7.5 0 1 0 15 0 a7.5 7.5 0 1 0 -15 0zM1313.28 1203.69 a7.5 7.5 0 1 0 15 0 a7.5 7.5 0 1 0 -15 0zM1313.28 1278.69 a7.5 7.5 0 1 0 15 0 a7.5 7.5 0 1 0 -15 0zM1248.33 1316.19 a7.5 7.5 0 1 0 15 0 a7.5 7.5 0 1 0 -15 0zM1248.33 1541.19 a7.5 7.5 0 1 0 15 0 a7.5 7.5 0 1 0 -15 0zM1248.33 1616.19 a7.5 7.5 0 1 0 15 0 a7.5 7.5 0 1 0 -15 0zM1183.38 1653.69 a7.5 7.5 0 1 0 15 0 a7.5 7.5 0 1 0 -15 0zM1118.42 1616.19 a7.5 7.5 0 1 0 15 0 a7.5 7.5 0 1 0 -15 0zM1313.29 -71.31 a7.5 7.5 0 1 0 15 0 a7.5 7.5 0 1 0 -15 0zM1378.24 -33.81 a7.5 7.5 0 1 0 15 0 a7.5 7.5 0 1 0 -15 0zM1378.24 41.19 a7.5 7.5 0 1 0 15 0 a7.5 7.5 0 1 0 -15 0zM1313.29 78.69 a7.5 7.5 0 1 0 15 0 a7.5 7.5 0 1 0 -15 0zM1443.19 78.69 a7.5 7.5 0 1 0 15 0 a7.5 7.5 0 1 0 -15 0zM1443.19 153.69 a7.5 7.5 0 1 0 15 0 a7.5 7.5 0 1 0 -15 0zM1378.24 191.19 a7.5 7.5 0 1 0 15 0 a7.5 7.5 0 1 0 -15 0zM1313.29 153.69 a7.5 7.5 0 1 0 15 0 a7.5 7.5 0 1 0 -15 0zM1378.24 266.19 a7.5 7.5 0 1 0 15 0 a7.5 7.5 0 1 0 -15 0zM1443.19 303.69 a7.5 7.5 0 1 0 15 0 a7.5 7.5 0 1 0 -15 0zM1443.19 378.69 a7.5 7.5 0 1 0 15 0 a7.5 7.5 0 1 0 -15 0zM1378.24 416.19 a7.5 7.5 0 1 0 15 0 a7.5 7.5 0 1 0 -15 0zM1313.29 378.69 a7.5 7.5 0 1 0 15 0 a7.5 7.5 0 1 0 -15 0zM1313.29 303.69 a7.5 7.5 0 1 0 15 0 a7.5 7.5 0 1 0 -15 0zM1378.24 491.19 a7.5 7.5 0 1 0 15 0 a7.5 7.5 0 1 0 -15 0zM1313.29 528.69 a7.5 7.5 0 1 0 15 0 a7.5 7.5 0 1 0 -15 0zM1248.33 416.19 a7.5 7.5 0 1 0 15 0 a7.5 7.5 0 1 0 -15 0zM1378.24 716.19 a7.5 7.5 0 1 0 15 0 a7.5 7.5 0 1 0 -15 0zM1443.19 753.69 a7.5 7.5 0 1 0 15 0 a7.5 7.5 0 1 0 -15 0zM1443.19 828.69 a7.5 7.5 0 1 0 15 0 a7.5 7.5 0 1 0 -15 0zM1378.24 866.19 a7.5 7.5 0 1 0 15 0 a7.5 7.5 0 1 0 -15 0zM1313.29 828.69 a7.5 7.5 0 1 0 15 0 a7.5 7.5 0 1 0 -15 0zM1313.29 753.69 a7.5 7.5 0 1 0 15 0 a7.5 7.5 0 1 0 -15 0zM1378.24 941.19 a7.5 7.5 0 1 0 15 0 a7.5 7.5 0 1 0 -15 0zM1443.19 978.69 a7.5 7.5 0 1 0 15 0 a7.5 7.5 0 1 0 -15 0zM1443.19 1053.69 a7.5 7.5 0 1 0 15 0 a7.5 7.5 0 1 0 -15 0zM1378.24 1091.19 a7.5 7.5 0 1 0 15 0 a7.5 7.5 0 1 0 -15 0zM1313.29 1053.69 a7.5 7.5 0 1 0 15 0 a7.5 7.5 0 1 0 -15 0zM1313.29 978.69 a7.5 7.5 0 1 0 15 0 a7.5 7.5 0 1 0 -15 0zM1378.24 1166.19 a7.5 7.5 0 1 0 15 0 a7.5 7.5 0 1 0 -15 0zM1313.29 1203.69 a7.5 7.5 0 1 0 15 0 a7.5 7.5 0 1 0 -15 0zM1248.33 1091.19 a7.5 7.5 0 1 0 15 0 a7.5 7.5 0 1 0 -15 0zM1443.19 1203.69 a7.5 7.5 0 1 0 15 0 a7.5 7.5 0 1 0 -15 0zM1443.19 1278.69 a7.5 7.5 0 1 0 15 0 a7.5 7.5 0 1 0 -15 0zM1378.24 1316.19 a7.5 7.5 0 1 0 15 0 a7.5 7.5 0 1 0 -15 0zM1313.29 1278.69 a7.5 7.5 0 1 0 15 0 a7.5 7.5 0 1 0 -15 0zM1508.15 41.19 a7.5 7.5 0 1 0 15 0 a7.5 7.5 0 1 0 -15 0zM1573.1 78.69 a7.5 7.5 0 1 0 15 0 a7.5 7.5 0 1 0 -15 0zM1573.1 153.69 a7.5 7.5 0 1 0 15 0 a7.5 7.5 0 1 0 -15 0zM1508.15 191.19 a7.5 7.5 0 1 0 15 0 a7.5 7.5 0 1 0 -15 0zM1508.15 266.19 a7.5 7.5 0 1 0 15 0 a7.5 7.5 0 1 0 -15 0zM1573.1 303.69 a7.5 7.5 0 1 0 15 0 a7.5 7.5 0 1 0 -15 0zM1573.1 378.69 a7.5 7.5 0 1 0 15 0 a7.5 7.5 0 1 0 -15 0zM1508.15 416.19 a7.5 7.5 0 1 0 15 0 a7.5 7.5 0 1 0 -15 0zM1508.15 491.19 a7.5 7.5 0 1 0 15 0 a7.5 7.5 0 1 0 -15 0zM1573.1 528.69 a7.5 7.5 0 1 0 15 0 a7.5 7.5 0 1 0 -15 0zM1573.1 603.69 a7.5 7.5 0 1 0 15 0 a7.5 7.5 0 1 0 -15 0zM1508.15 641.19 a7.5 7.5 0 1 0 15 0 a7.5 7.5 0 1 0 -15 0zM1443.19 603.69 a7.5 7.5 0 1 0 15 0 a7.5 7.5 0 1 0 -15 0zM1443.19 528.69 a7.5 7.5 0 1 0 15 0 a7.5 7.5 0 1 0 -15 0zM1508.15 866.19 a7.5 7.5 0 1 0 15 0 a7.5 7.5 0 1 0 -15 0zM1508.15 941.19 a7.5 7.5 0 1 0 15 0 a7.5 7.5 0 1 0 -15 0zM1508.15 1091.19 a7.5 7.5 0 1 0 15 0 a7.5 7.5 0 1 0 -15 0zM1508.15 1166.19 a7.5 7.5 0 1 0 15 0 a7.5 7.5 0 1 0 -15 0zM1573.1 1203.69 a7.5 7.5 0 1 0 15 0 a7.5 7.5 0 1 0 -15 0zM1573.1 1278.69 a7.5 7.5 0 1 0 15 0 a7.5 7.5 0 1 0 -15 0zM1508.15 1316.19 a7.5 7.5 0 1 0 15 0 a7.5 7.5 0 1 0 -15 0zM1508.15 1391.19 a7.5 7.5 0 1 0 15 0 a7.5 7.5 0 1 0 -15 0zM1443.19 1428.69 a7.5 7.5 0 1 0 15 0 a7.5 7.5 0 1 0 -15 0zM1378.24 1391.19 a7.5 7.5 0 1 0 15 0 a7.5 7.5 0 1 0 -15 0z" fill="#03305d"></path><path d="M2.7 257.67L46 282.67L46 332.67L2.7 357.67L-40.6 332.67L-40.6 282.67zM2.7 407.67L46 432.67L46 482.67L2.7 507.67L-40.6 482.67L-40.6 432.67zM2.7 557.67L46 582.67L46 632.67L2.7 657.67L-40.6 632.67L-40.6 582.67zM2.7 707.67L46 732.67L46 782.67L2.7 807.67L-40.6 782.67L-40.6 732.67zM46 782.67L89.31 807.67L89.31 857.67L46 882.67L2.7 857.67L2.7 807.67zM2.7 857.67L46 882.67L46 932.67L2.7 957.67L-40.6 932.67L-40.6 882.67zM46 932.67L89.31 957.67L89.31 1007.67L46 1032.67L2.7 1007.67L2.7 957.67zM2.7 1007.67L46 1032.67L46 1082.67L2.7 1107.67L-40.6 1082.67L-40.6 1032.67zM2.7 1157.67L46 1182.67L46 1232.67L2.7 1257.67L-40.6 1232.67L-40.6 1182.67zM46 1232.67L89.31 1257.67L89.31 1307.67L46 1332.67L2.7 1307.67L2.7 1257.67zM2.7 1307.67L46 1332.67L46 1382.67L2.7 1407.67L-40.6 1382.67L-40.6 1332.67zM46 1532.67L89.31 1557.67L89.31 1607.67L46 1632.67L2.7 1607.67L2.7 1557.67zM132.61 32.67L175.91 57.67L175.91 107.67L132.61 132.67L89.31 107.67L89.31 57.67zM132.61 182.67L175.91 207.67L175.91 257.67L132.61 282.67L89.31 257.67L89.31 207.67zM89.31 257.67L132.61 282.67L132.61 332.67L89.31 357.67L46 332.67L46 282.67zM89.31 407.67L132.61 432.67L132.61 482.67L89.31 507.67L46 482.67L46 432.67zM132.61 632.67L175.91 657.67L175.91 707.67L132.61 732.67L89.31 707.67L89.31 657.67zM89.31 707.67L132.61 732.67L132.61 782.67L89.31 807.67L46 782.67L46 732.67zM89.31 857.67L132.61 882.67L132.61 932.67L89.31 957.67L46 932.67L46 882.67zM132.61 932.67L175.91 957.67L175.91 1007.67L132.61 1032.67L89.31 1007.67L89.31 957.67zM89.31 1007.67L132.61 1032.67L132.61 1082.67L89.31 1107.67L46 1082.67L46 1032.67zM132.61 1082.67L175.91 1107.67L175.91 1157.67L132.61 1182.67L89.31 1157.67L89.31 1107.67zM89.31 1157.67L132.61 1182.67L132.61 1232.67L89.31 1257.67L46 1232.67L46 1182.67zM132.61 1532.67L175.91 1557.67L175.91 1607.67L132.61 1632.67L89.31 1607.67L89.31 1557.67zM175.91 257.67L219.21 282.67L219.21 332.67L175.91 357.67L132.61 332.67L132.61 282.67zM219.21 332.67L262.51 357.67L262.51 407.67L219.21 432.67L175.91 407.67L175.91 357.67zM175.91 557.67L219.21 582.67L219.21 632.67L175.91 657.67L132.61 632.67L132.61 582.67zM219.21 782.67L262.51 807.67L262.51 857.67L219.21 882.67L175.91 857.67L175.91 807.67zM175.91 1157.67L219.21 1182.67L219.21 1232.67L175.91 1257.67L132.61 1232.67L132.61 1182.67zM262.51 -42.33L305.82 -17.33L305.82 32.67L262.51 57.67L219.21 32.67L219.21 -17.33zM305.82 332.67L349.12 357.67L349.12 407.67L305.82 432.67L262.51 407.67L262.51 357.67zM262.51 407.67L305.82 432.67L305.82 482.67L262.51 507.67L219.21 482.67L219.21 432.67zM305.82 482.67L349.12 507.67L349.12 557.67L305.82 582.67L262.51 557.67L262.51 507.67zM262.51 707.67L305.82 732.67L305.82 782.67L262.51 807.67L219.21 782.67L219.21 732.67zM262.51 1157.67L305.82 1182.67L305.82 1232.67L262.51 1257.67L219.21 1232.67L219.21 1182.67zM305.82 1232.67L349.12 1257.67L349.12 1307.67L305.82 1332.67L262.51 1307.67L262.51 1257.67zM305.82 1532.67L349.12 1557.67L349.12 1607.67L305.82 1632.67L262.51 1607.67L262.51 1557.67zM392.42 32.67L435.73 57.67L435.73 107.67L392.42 132.67L349.12 107.67L349.12 57.67zM349.12 107.67L392.42 132.67L392.42 182.67L349.12 207.67L305.82 182.67L305.82 132.67zM392.42 182.67L435.73 207.67L435.73 257.67L392.42 282.67L349.12 257.67L349.12 207.67zM349.12 257.67L392.42 282.67L392.42 332.67L349.12 357.67L305.82 332.67L305.82 282.67zM392.42 332.67L435.73 357.67L435.73 407.67L392.42 432.67L349.12 407.67L349.12 357.67zM349.12 407.67L392.42 432.67L392.42 482.67L349.12 507.67L305.82 482.67L305.82 432.67zM349.12 707.67L392.42 732.67L392.42 782.67L349.12 807.67L305.82 782.67L305.82 732.67zM392.42 1082.67L435.73 1107.67L435.73 1157.67L392.42 1182.67L349.12 1157.67L349.12 1107.67zM479.03 332.67L522.33 357.67L522.33 407.67L479.03 432.67L435.73 407.67L435.73 357.67zM479.03 482.67L522.33 507.67L522.33 557.67L479.03 582.67L435.73 557.67L435.73 507.67zM435.73 557.67L479.03 582.67L479.03 632.67L435.73 657.67L392.42 632.67L392.42 582.67zM479.03 1382.67L522.33 1407.67L522.33 1457.67L479.03 1482.67L435.73 1457.67L435.73 1407.67zM479.03 1532.67L522.33 1557.67L522.33 1607.67L479.03 1632.67L435.73 1607.67L435.73 1557.67zM565.63 32.67L608.94 57.67L608.94 107.67L565.63 132.67L522.33 107.67L522.33 57.67zM522.33 107.67L565.63 132.67L565.63 182.67L522.33 207.67L479.03 182.67L479.03 132.67zM565.63 182.67L608.94 207.67L608.94 257.67L565.63 282.67L522.33 257.67L522.33 207.67zM522.33 257.67L565.63 282.67L565.63 332.67L522.33 357.67L479.03 332.67L479.03 282.67zM565.63 332.67L608.94 357.67L608.94 407.67L565.63 432.67L522.33 407.67L522.33 357.67zM522.33 557.67L565.63 582.67L565.63 632.67L522.33 657.67L479.03 632.67L479.03 582.67zM522.33 1007.67L565.63 1032.67L565.63 1082.67L522.33 1107.67L479.03 1082.67L479.03 1032.67zM565.63 1082.67L608.94 1107.67L608.94 1157.67L565.63 1182.67L522.33 1157.67L522.33 1107.67zM522.33 1157.67L565.63 1182.67L565.63 1232.67L522.33 1257.67L479.03 1232.67L479.03 1182.67zM565.63 1232.67L608.94 1257.67L608.94 1307.67L565.63 1332.67L522.33 1307.67L522.33 1257.67zM608.94 -42.33L652.24 -17.33L652.24 32.67L608.94 57.67L565.63 32.67L565.63 -17.33zM652.24 182.67L695.54 207.67L695.54 257.67L652.24 282.67L608.94 257.67L608.94 207.67zM652.24 332.67L695.54 357.67L695.54 407.67L652.24 432.67L608.94 407.67L608.94 357.67zM608.94 407.67L652.24 432.67L652.24 482.67L608.94 507.67L565.63 482.67L565.63 432.67zM652.24 782.67L695.54 807.67L695.54 857.67L652.24 882.67L608.94 857.67L608.94 807.67zM608.94 1007.67L652.24 1032.67L652.24 1082.67L608.94 1107.67L565.63 1082.67L565.63 1032.67zM652.24 1232.67L695.54 1257.67L695.54 1307.67L652.24 1332.67L608.94 1307.67L608.94 1257.67zM695.54 -42.33L738.84 -17.33L738.84 32.67L695.54 57.67L652.24 32.67L652.24 -17.33zM695.54 107.67L738.84 132.67L738.84 182.67L695.54 207.67L652.24 182.67L652.24 132.67zM738.84 182.67L782.15 207.67L782.15 257.67L738.84 282.67L695.54 257.67L695.54 207.67zM695.54 257.67L738.84 282.67L738.84 332.67L695.54 357.67L652.24 332.67L652.24 282.67zM695.54 407.67L738.84 432.67L738.84 482.67L695.54 507.67L652.24 482.67L652.24 432.67zM738.84 632.67L782.15 657.67L782.15 707.67L738.84 732.67L695.54 707.67L695.54 657.67zM695.54 707.67L738.84 732.67L738.84 782.67L695.54 807.67L652.24 782.67L652.24 732.67zM695.54 1007.67L738.84 1032.67L738.84 1082.67L695.54 1107.67L652.24 1082.67L652.24 1032.67zM695.54 1157.67L738.84 1182.67L738.84 1232.67L695.54 1257.67L652.24 1232.67L652.24 1182.67zM738.84 1232.67L782.15 1257.67L782.15 1307.67L738.84 1332.67L695.54 1307.67L695.54 1257.67zM695.54 1457.67L738.84 1482.67L738.84 1532.67L695.54 1557.67L652.24 1532.67L652.24 1482.67zM825.45 332.67L868.75 357.67L868.75 407.67L825.45 432.67L782.15 407.67L782.15 357.67zM825.45 482.67L868.75 507.67L868.75 557.67L825.45 582.67L782.15 557.67L782.15 507.67zM782.15 557.67L825.45 582.67L825.45 632.67L782.15 657.67L738.84 632.67L738.84 582.67zM782.15 707.67L825.45 732.67L825.45 782.67L782.15 807.67L738.84 782.67L738.84 732.67zM825.45 782.67L868.75 807.67L868.75 857.67L825.45 882.67L782.15 857.67L782.15 807.67zM782.15 857.67L825.45 882.67L825.45 932.67L782.15 957.67L738.84 932.67L738.84 882.67zM825.45 932.67L868.75 957.67L868.75 1007.67L825.45 1032.67L782.15 1007.67L782.15 957.67zM782.15 1157.67L825.45 1182.67L825.45 1232.67L782.15 1257.67L738.84 1232.67L738.84 1182.67zM825.45 1382.67L868.75 1407.67L868.75 1457.67L825.45 1482.67L782.15 1457.67L782.15 1407.67zM782.15 1457.67L825.45 1482.67L825.45 1532.67L782.15 1557.67L738.84 1532.67L738.84 1482.67zM868.75 -42.33L912.05 -17.33L912.05 32.67L868.75 57.67L825.45 32.67L825.45 -17.33zM912.05 182.67L955.36 207.67L955.36 257.67L912.05 282.67L868.75 257.67L868.75 207.67zM868.75 557.67L912.05 582.67L912.05 632.67L868.75 657.67L825.45 632.67L825.45 582.67zM912.05 632.67L955.36 657.67L955.36 707.67L912.05 732.67L868.75 707.67L868.75 657.67zM868.75 1157.67L912.05 1182.67L912.05 1232.67L868.75 1257.67L825.45 1232.67L825.45 1182.67zM912.05 1382.67L955.36 1407.67L955.36 1457.67L912.05 1482.67L868.75 1457.67L868.75 1407.67zM868.75 1457.67L912.05 1482.67L912.05 1532.67L868.75 1557.67L825.45 1532.67L825.45 1482.67zM912.05 1532.67L955.36 1557.67L955.36 1607.67L912.05 1632.67L868.75 1607.67L868.75 1557.67zM955.36 -42.33L998.66 -17.33L998.66 32.67L955.36 57.67L912.05 32.67L912.05 -17.33zM998.66 32.67L1041.96 57.67L1041.96 107.67L998.66 132.67L955.36 107.67L955.36 57.67zM955.36 107.67L998.66 132.67L998.66 182.67L955.36 207.67L912.05 182.67L912.05 132.67zM998.66 182.67L1041.96 207.67L1041.96 257.67L998.66 282.67L955.36 257.67L955.36 207.67zM955.36 407.67L998.66 432.67L998.66 482.67L955.36 507.67L912.05 482.67L912.05 432.67zM998.66 782.67L1041.96 807.67L1041.96 857.67L998.66 882.67L955.36 857.67L955.36 807.67zM955.36 857.67L998.66 882.67L998.66 932.67L955.36 957.67L912.05 932.67L912.05 882.67zM955.36 1157.67L998.66 1182.67L998.66 1232.67L955.36 1257.67L912.05 1232.67L912.05 1182.67zM998.66 1232.67L1041.96 1257.67L1041.96 1307.67L998.66 1332.67L955.36 1307.67L955.36 1257.67zM955.36 1307.67L998.66 1332.67L998.66 1382.67L955.36 1407.67L912.05 1382.67L912.05 1332.67zM998.66 1532.67L1041.96 1557.67L1041.96 1607.67L998.66 1632.67L955.36 1607.67L955.36 1557.67zM1041.96 -42.33L1085.26 -17.33L1085.26 32.67L1041.96 57.67L998.66 32.67L998.66 -17.33zM1085.26 32.67L1128.57 57.67L1128.57 107.67L1085.26 132.67L1041.96 107.67L1041.96 57.67zM1041.96 257.67L1085.26 282.67L1085.26 332.67L1041.96 357.67L998.66 332.67L998.66 282.67zM1085.26 332.67L1128.57 357.67L1128.57 407.67L1085.26 432.67L1041.96 407.67L1041.96 357.67zM1085.26 632.67L1128.57 657.67L1128.57 707.67L1085.26 732.67L1041.96 707.67L1041.96 657.67zM1085.26 782.67L1128.57 807.67L1128.57 857.67L1085.26 882.67L1041.96 857.67L1041.96 807.67zM1041.96 1307.67L1085.26 1332.67L1085.26 1382.67L1041.96 1407.67L998.66 1382.67L998.66 1332.67zM1041.96 1457.67L1085.26 1482.67L1085.26 1532.67L1041.96 1557.67L998.66 1532.67L998.66 1482.67zM1085.26 1532.67L1128.57 1557.67L1128.57 1607.67L1085.26 1632.67L1041.96 1607.67L1041.96 1557.67zM1128.57 407.67L1171.87 432.67L1171.87 482.67L1128.57 507.67L1085.26 482.67L1085.26 432.67zM1171.87 632.67L1215.17 657.67L1215.17 707.67L1171.87 732.67L1128.57 707.67L1128.57 657.67zM1171.87 782.67L1215.17 807.67L1215.17 857.67L1171.87 882.67L1128.57 857.67L1128.57 807.67zM1128.57 857.67L1171.87 882.67L1171.87 932.67L1128.57 957.67L1085.26 932.67L1085.26 882.67zM1171.87 932.67L1215.17 957.67L1215.17 1007.67L1171.87 1032.67L1128.57 1007.67L1128.57 957.67zM1128.57 1007.67L1171.87 1032.67L1171.87 1082.67L1128.57 1107.67L1085.26 1082.67L1085.26 1032.67zM1128.57 1157.67L1171.87 1182.67L1171.87 1232.67L1128.57 1257.67L1085.26 1232.67L1085.26 1182.67zM1171.87 1532.67L1215.17 1557.67L1215.17 1607.67L1171.87 1632.67L1128.57 1607.67L1128.57 1557.67zM1258.47 332.67L1301.78 357.67L1301.78 407.67L1258.47 432.67L1215.17 407.67L1215.17 357.67zM1258.47 482.67L1301.78 507.67L1301.78 557.67L1258.47 582.67L1215.17 557.67L1215.17 507.67zM1258.47 632.67L1301.78 657.67L1301.78 707.67L1258.47 732.67L1215.17 707.67L1215.17 657.67zM1258.47 1082.67L1301.78 1107.67L1301.78 1157.67L1258.47 1182.67L1215.17 1157.67L1215.17 1107.67zM1345.08 32.67L1388.38 57.67L1388.38 107.67L1345.08 132.67L1301.78 107.67L1301.78 57.67zM1301.78 257.67L1345.08 282.67L1345.08 332.67L1301.78 357.67L1258.47 332.67L1258.47 282.67zM1301.78 407.67L1345.08 432.67L1345.08 482.67L1301.78 507.67L1258.47 482.67L1258.47 432.67zM1345.08 482.67L1388.38 507.67L1388.38 557.67L1345.08 582.67L1301.78 557.67L1301.78 507.67zM1345.08 782.67L1388.38 807.67L1388.38 857.67L1345.08 882.67L1301.78 857.67L1301.78 807.67zM1301.78 1007.67L1345.08 1032.67L1345.08 1082.67L1301.78 1107.67L1258.47 1082.67L1258.47 1032.67zM1345.08 1232.67L1388.38 1257.67L1388.38 1307.67L1345.08 1332.67L1301.78 1307.67L1301.78 1257.67zM1301.78 1307.67L1345.08 1332.67L1345.08 1382.67L1301.78 1407.67L1258.47 1382.67L1258.47 1332.67zM1345.08 1382.67L1388.38 1407.67L1388.38 1457.67L1345.08 1482.67L1301.78 1457.67L1301.78 1407.67zM1431.68 182.67L1474.99 207.67L1474.99 257.67L1431.68 282.67L1388.38 257.67L1388.38 207.67zM1388.38 257.67L1431.68 282.67L1431.68 332.67L1388.38 357.67L1345.08 332.67L1345.08 282.67zM1388.38 857.67L1431.68 882.67L1431.68 932.67L1388.38 957.67L1345.08 932.67L1345.08 882.67zM1431.68 932.67L1474.99 957.67L1474.99 1007.67L1431.68 1032.67L1388.38 1007.67L1388.38 957.67zM1388.38 1157.67L1431.68 1182.67L1431.68 1232.67L1388.38 1257.67L1345.08 1232.67L1345.08 1182.67zM1431.68 1382.67L1474.99 1407.67L1474.99 1457.67L1431.68 1482.67L1388.38 1457.67L1388.38 1407.67zM1431.68 1532.67L1474.99 1557.67L1474.99 1607.67L1431.68 1632.67L1388.38 1607.67L1388.38 1557.67z" stroke="rgba(6, 80, 156, 0.93)" stroke-width="2"></path></g><defs><mask id="SvgjsMask1524"><rect width="1440" height="1600" fill="#ffffff"></rect></mask><radialGradient cx="50%" cy="50%" r="1076.29" gradientUnits="userSpaceOnUse" id="SvgjsRadialGradient1525"><stop stop-color="#0e2a47" offset="0"></stop><stop stop-color="rgba(239, 239, 239, 0.97)" offset="1"></stop></radialGradient></defs></svg>